# xmcd
#
# Track frame offsets:
#	150
#	20413
#	39971
#	54437
#
# Disc length: 1108 seconds
#
# Revision: 0
# Processed by: cddbd v1.4PL0 Copyright (c) Steve Scherf et al.
# Submitted via: EasyCDDAExtractor 5.0.4.1
#
DISCID=25045204
DTITLE=Antonis Vardis - Oti Exo Sto Xarizo [CD2)
DYEAR=2003
DGENRE=Greek
TTITLE0=8elo Na Ma8o(acoustic version)
TTITLE1=Fovame To Aurio(Dco Mix)
TTITLE2=Fotia
TTITLE3=8elo Na Ma8o(After Mix)
EXTD=
EXTT0=
EXTT1=
EXTT2=
EXTT3=
PLAYORDER=
